<?xml version="1.0" encoding="iso-8859-1"?>
<!-- Generator: Adobe Illustrator 19.0.0, SVG Export Plug-In . SVG Version: 6.00 Build 0)  -->
<svg version="1.1" id="Layer_1" xmlns="http://www.w3.org/2000/svg" xmlns:xlink="http://www.w3.org/1999/xlink" x="0px" y="0px"
	 viewBox="0 0 512 512" style="enable-background:new 0 0 512 512;" xml:space="preserve">
<path style="fill:#00C3FF;" d="M434.689,141.998H77.311c-17.031,0-30.837,13.806-30.837,30.837v266.962H212.59l0,0
	c0,14.642,11.87,26.512,26.512,26.512h33.735c14.642,0,26.512-11.87,26.512-26.512l0,0h166.176V172.835
	C465.526,155.804,451.72,141.998,434.689,141.998z"/>
<path style="fill:#0084FF;" d="M299.148,439.796L299.148,439.796c0,14.726-11.937,26.663-26.663,26.663h-33.232
	c-14.726,0-26.663-11.937-26.663-26.663l0,0H11.908v15.59c0,25.744,20.87,46.614,46.614,46.614h394.956
	c25.744,0,46.614-20.87,46.614-46.614v-15.59H299.148z"/>
<rect x="90.51" y="184.32" style="fill:#92E03F;" width="334.34" height="213.74"/>
<g>
	<path style="fill:#F2427F;" d="M301.115,157.082l22.682,22.682c16.158,16.158,25.235,38.072,25.235,60.922v44.654l-57.543-51.918
		L301.115,157.082z"/>
	<path style="fill:#F2427F;" d="M212.574,156.757l-24.369,23c-16.158,16.158-25.235,38.072-25.235,60.922v44.654l57.543-51.918
		L212.574,156.757z"/>
</g>
<path style="fill:#FFD41D;" d="M222.051,248.236c8.054,2.378,19.509,4.837,33.377,4.884c14.261,0.049,26.014-2.47,34.191-4.884
	c4.6-36.469,9.199-72.938,13.799-109.407c5.709-45.266-8.642-90.768-39.287-124.568l-1.759-1.94
	c-2.834-3.125-7.756-3.089-10.543,0.078l-3.313,3.764c-28.807,32.735-42.633,76.014-38.139,119.387L222.051,248.236z"/>
<path d="M500.092,429.796H299.148c-5.522,0-10,4.478-10,10c0,9.188-7.475,16.663-16.663,16.663h-33.231
	c-9.188,0-16.663-7.475-16.663-16.663c0-5.522-4.478-10-10-10H56.475V172.835c0-11.489,9.348-20.837,20.837-20.837h124.715
	l0.091,0.876l-20.778,19.61c-0.069,0.066-0.139,0.134-0.207,0.201c-18.161,18.163-28.163,42.311-28.163,67.994v44.653
	c0,3.951,2.327,7.532,5.938,9.138c1.304,0.58,2.688,0.862,4.061,0.862c2.429,0,4.827-0.885,6.701-2.575l43.759-39.482
	c1.26,2.155,3.299,3.815,5.791,4.551c11.751,3.471,23.922,5.252,36.175,5.294c0.147,0,0.295,0.001,0.443,0.001
	c12.399,0,24.716-1.781,36.614-5.295c2.563-0.758,4.642-2.501,5.891-4.753l43.989,39.689c1.875,1.69,4.272,2.575,6.701,2.575
	c1.373,0,2.757-0.282,4.061-0.862c3.61-1.605,5.938-5.187,5.938-9.138v-44.653c0-25.684-10.002-49.831-28.163-67.994l-19.217-19.217
	l0.186-1.477H434.69c11.489,0,20.837,9.348,20.837,20.837v183.344c0,5.522,4.478,10,10,10s10-4.478,10-10V172.835
	c0-22.518-18.319-40.837-40.837-40.837H314.15c3.504-45.499-11.789-90.458-42.613-124.457l-1.758-1.937
	C266.546,2.038,261.943,0,257.134,0c-0.042,0-0.085,0-0.127,0c-4.855,0.036-9.479,2.148-12.686,5.793l-3.313,3.764
	c-29.54,33.568-44.343,77.958-40.986,122.441H77.312c-22.518,0-40.837,18.319-40.837,40.837v256.961H11.908c-5.522,0-10,4.478-10,10
	v15.59C1.908,486.603,27.306,512,58.522,512h394.955c31.217,0,56.614-25.396,56.614-56.613v-15.591
	C510.092,434.273,505.615,429.796,500.092,429.796z M172.971,262.842V240.68c0-20.295,7.886-39.379,22.206-53.752l9.536-9.001
	l5.331,51.465L172.971,262.842z M316.725,186.834c14.384,14.385,22.306,33.51,22.306,53.852v22.162l-36.969-33.355l1.644-13.037
	l4.776-37.864L316.725,186.834z M256.022,22.77l1.145-1.3c28.413,31.625,41.652,73.905,36.329,116.108l-2.299,18.229
	c-0.001,0.008-0.003,0.015-0.004,0.022l-9.627,76.339c0,0.001,0,0.001,0,0.002l-1.024,8.121c-8.097,1.88-16.377,2.83-24.704,2.83
	c-0.125,0-0.25,0-0.375-0.001c-8.148-0.028-16.253-0.966-24.177-2.793l-7.879-76.047l-0.886-8.554c0-0.001,0-0.002-0.001-0.004
	l-2.197-21.202C216.131,94.047,229.143,53.315,256.022,22.77z M490.092,455.387c0,20.188-16.425,36.613-36.614,36.613H58.522
	c-20.189,0-36.614-16.425-36.614-36.614v-5.59h182.068c4.363,15.372,18.526,26.663,35.277,26.663h33.231
	c16.751,0,30.914-11.291,35.277-26.663H490.09v5.591H490.092z"/>
<path d="M132.225,194.321c5.522,0,10-4.478,10-10s-4.478-10-10-10H90.506c-5.522,0-10,4.478-10,10v213.741c0,5.522,4.478,10,10,10
	h334.345c5.522,0,10-4.478,10-10V184.321c0-5.522-4.478-10-10-10h-50.342c-5.522,0-10,4.478-10,10s4.478,10,10,10h40.342v193.741
	H100.506V194.321H132.225z"/>
<circle cx="256" cy="105.57" r="10"/>
<circle cx="465.53" cy="399.77" r="10"/>
<path d="M239.999,328.356v-40.705c0-5.522-4.478-10-10-10s-10,4.478-10,10v40.705c0,5.522,4.478,10,10,10
	S239.999,333.879,239.999,328.356z"/>
<path d="M290.802,345.359v-60.026c0-5.522-4.478-10-10-10s-10,4.478-10,10v60.026c0,5.522,4.478,10,10,10
	S290.802,350.882,290.802,345.359z"/>
<g>
</g>
<g>
</g>
<g>
</g>
<g>
</g>
<g>
</g>
<g>
</g>
<g>
</g>
<g>
</g>
<g>
</g>
<g>
</g>
<g>
</g>
<g>
</g>
<g>
</g>
<g>
</g>
<g>
</g>
</svg>
