<?xml version="1.0" encoding="iso-8859-1"?>
<!-- Generator: Adobe Illustrator 19.0.0, SVG Export Plug-In . SVG Version: 6.00 Build 0)  -->
<svg version="1.1" id="Layer_1" xmlns="http://www.w3.org/2000/svg" xmlns:xlink="http://www.w3.org/1999/xlink" x="0px" y="0px"
	 viewBox="0 0 512 512" style="enable-background:new 0 0 512 512;" xml:space="preserve">
<path style="fill:#47CEAC;" d="M512,256.006C512,397.402,397.394,512.004,256.004,512C114.606,512.004,0,397.402,0,256.006
	C-0.007,114.61,114.606,0,256.004,0C397.394,0,512,114.614,512,256.006z"/>
<path style="fill:#36BB9A;" d="M512,256.005c0-0.704-0.048-1.398-0.053-2.101c-0.362-0.375-128.969-129.033-129.559-129.559
	c-3.812-4.268-9.294-7.011-15.454-7.011h-76.267c-12.886,0-23.649,8.871-26.749,20.8h-32.787l-18.83-18.777
	c-1.299-1.299-3.06-2.025-4.895-2.025H96.533c-3.833,0-6.933,3.101-6.933,6.933v230.507c0,11.521,4.901,21.698,12.789,28.916
	c0.549,0.565,126.201,126.251,126.783,126.784c0.046,0.048,0.095,0.093,0.141,0.141c8.774,0.909,17.676,1.386,26.69,1.386
	C397.394,512.004,512,397.401,512,256.005z"/>
<path style="fill:#F4F6F9;" d="M415.467,172.8h-27.733v-34.667c0-11.47-9.33-20.8-20.8-20.8h-76.267
	c-12.887,0-23.649,8.871-26.749,20.8h-32.787l-18.83-18.775c-1.3-1.3-3.06-2.025-4.895-2.025H96.533
	c-3.833,0-6.933,3.101-6.933,6.933v230.507c0,22.371,18.274,39.893,41.6,39.893h242.667c26.758,0,48.533-21.775,48.533-48.533
	v-166.4C422.4,175.901,419.299,172.8,415.467,172.8z M366.933,131.2c3.825,0,6.933,3.108,6.933,6.933V294.73l-22.831-22.831
	c-1.355-1.355-3.129-2.031-4.902-2.031s-3.548,0.677-4.902,2.031L318.4,294.73V145.067c0-5.044-1.355-9.783-3.724-13.867H366.933z
	 M290.667,131.2c5.108,0,9.532,2.81,11.937,6.933H278.73C281.135,134.01,285.558,131.2,290.667,131.2z M103.467,354.773V131.2
	h101.075l18.83,18.775c1.3,1.3,3.06,2.025,4.895,2.025h76.267v20.8H165.867c-3.833,0-6.933,3.101-6.933,6.933v175.04
	c0,15.323-11.402,26.027-27.733,26.027C115.39,380.8,103.467,369.607,103.467,354.773z M408.533,346.133
	c0,19.114-15.553,34.667-34.667,34.667H163.475c5.897-6.839,9.325-15.809,9.325-26.027V186.667h131.733v124.8
	c0,2.803,1.686,5.335,4.279,6.405c2.593,1.076,5.572,0.481,7.556-1.503l29.764-29.764l29.764,29.764
	c1.327,1.327,3.101,2.031,4.902,2.031c0.894,0,1.794-0.17,2.654-0.528c2.593-1.07,4.279-3.602,4.279-6.405v-124.8h20.8V346.133z"/>
<g>
</g>
<g>
</g>
<g>
</g>
<g>
</g>
<g>
</g>
<g>
</g>
<g>
</g>
<g>
</g>
<g>
</g>
<g>
</g>
<g>
</g>
<g>
</g>
<g>
</g>
<g>
</g>
<g>
</g>
</svg>
